<?xml version="1.0" encoding="UTF-8"?><svg xmlns="http://www.w3.org/2000/svg" xmlns:xlink="http://www.w3.org/1999/xlink" contentScriptType="text/ecmascript" width="375" zoomAndPan="magnify" contentStyleType="text/css" viewBox="0 0 375 374.999991" height="374.999991" preserveAspectRatio="xMidYMid meet" version="1.0"><defs><clipPath id="clip-0"><path d="M 24.886719 0.289062 L 350.386719 0.289062 L 350.386719 374.714844 L 24.886719 374.714844 Z M 24.886719 0.289062 " clip-rule="nonzero"/></clipPath><clipPath id="clip-1"><path d="M 24.886719 41.074219 L 350.386719 41.074219 L 350.386719 333.136719 L 24.886719 333.136719 Z M 24.886719 41.074219 " clip-rule="nonzero"/></clipPath><clipPath id="clip-2"><path d="M 24.886719 0.289062 L 350.386719 0.289062 L 350.386719 374.714844 L 24.886719 374.714844 Z M 24.886719 0.289062 " clip-rule="nonzero"/></clipPath></defs><g clip-path="url(#clip-0)"><path fill="rgb(65.098572%, 65.098572%, 65.098572%)" d="M 187.503906 374.714844 L 187.503906 353.925781 L 24.886719 250.386719 L 24.886719 271.171875 Z M 187.503906 228.679688 L 187.503906 249.597656 L 251.890625 208.550781 L 235.566406 198.15625 Z M 187.765625 0.289062 L 187.765625 21.078125 L 350.386719 124.613281 L 350.386719 103.828125 Z M 187.765625 146.320312 L 187.765625 125.40625 L 123.246094 166.453125 L 139.707031 176.84375 L 187.765625 146.320312 " fill-opacity="1" fill-rule="nonzero"/></g><g clip-path="url(#clip-1)"><path fill="rgb(100%, 74.119568%, 34.899902%)" d="M 187.503906 333.003906 L 187.503906 312.089844 L 24.886719 208.550781 L 24.886719 229.46875 Z M 187.503906 291.300781 L 284.683594 229.339844 L 268.351562 218.941406 L 187.503906 270.511719 Z M 187.765625 41.992188 L 187.765625 62.914062 L 350.386719 166.453125 L 350.386719 145.53125 Z M 187.765625 83.695312 L 90.460938 145.664062 L 106.921875 156.054688 L 187.765625 104.484375 L 187.765625 83.695312 " fill-opacity="1" fill-rule="nonzero"/><path fill="rgb(100%, 87.059021%, 34.899902%)" d="M 187.503906 291.300781 L 187.503906 270.382812 L 24.886719 166.847656 L 24.886719 187.761719 Z M 187.503906 333.003906 L 317.601562 250.253906 L 301.140625 239.730469 L 187.503906 312.222656 Z M 187.765625 83.695312 L 187.765625 104.617188 L 350.386719 208.15625 L 350.386719 187.238281 Z M 187.765625 41.992188 L 57.671875 124.746094 L 74.003906 135.273438 L 187.765625 62.78125 L 187.765625 41.992188 " fill-opacity="1" fill-rule="nonzero"/></g><g clip-path="url(#clip-2)"><path fill="rgb(85.099792%, 85.099792%, 85.099792%)" d="M 187.503906 249.597656 L 187.503906 228.679688 L 24.886719 125.136719 L 24.886719 146.058594 Z M 187.503906 374.714844 L 350.386719 271.042969 L 333.925781 260.644531 L 187.503906 353.925781 Z M 187.765625 125.40625 L 187.765625 146.320312 L 350.386719 249.859375 L 350.386719 228.941406 Z M 187.765625 0.289062 L 24.886719 103.960938 L 41.210938 114.351562 L 187.765625 21.078125 L 187.765625 0.289062 " fill-opacity="1" fill-rule="nonzero"/></g></svg>